<svg width="32" height="32" viewBox="0 0 32 32" fill="none" xmlns="http://www.w3.org/2000/svg">
<g clip-path="url(#clip0_2904_7340)">
<path d="M25.5214 17.2525C25.5748 16.8525 25.6014 16.4392 25.6014 15.9992C25.6014 15.5726 25.5748 15.1459 25.5081 14.7459L28.2148 12.6392C28.4548 12.4526 28.5214 12.0926 28.3748 11.8259L25.8148 7.39922C25.6548 7.10589 25.3214 7.01255 25.0281 7.10588L21.8414 8.38588C21.1748 7.87922 20.4681 7.45255 19.6814 7.13255L19.2014 3.74589C19.1481 3.42589 18.8814 3.19922 18.5614 3.19922H13.4414C13.1214 3.19922 12.8681 3.42589 12.8148 3.74589L12.3348 7.13255C11.5481 7.45255 10.8281 7.89255 10.1748 8.38588L6.98811 7.10588C6.69478 6.99922 6.36145 7.10589 6.20145 7.39922L3.65478 11.8259C3.49478 12.1059 3.54811 12.4526 3.81478 12.6392L6.52145 14.7459C6.45478 15.1459 6.40145 15.5859 6.40145 15.9992C6.40145 16.4126 6.42811 16.8525 6.49478 17.2525L3.78811 19.3592C3.54811 19.5459 3.48145 19.9059 3.62812 20.1726L6.18811 24.5992C6.34811 24.8926 6.68145 24.9859 6.97478 24.8926L10.1614 23.6126C10.8281 24.1192 11.5348 24.5459 12.3214 24.8659L12.8014 28.2526C12.8681 28.5726 13.1214 28.7992 13.4414 28.7992H18.5614C18.8814 28.7992 19.1481 28.5726 19.1881 28.2526L19.6681 24.8659C20.4548 24.5459 21.1748 24.1192 21.8281 23.6126L25.0148 24.8926C25.3081 24.9992 25.6414 24.8926 25.8014 24.5992L28.3614 20.1726C28.5214 19.8792 28.4548 19.5459 28.2014 19.3592L25.5214 17.2525ZM16.0014 20.7992C13.3614 20.7992 11.2014 18.6392 11.2014 15.9992C11.2014 13.3592 13.3614 11.1992 16.0014 11.1992C18.6414 11.1992 20.8014 13.3592 20.8014 15.9992C20.8014 18.6392 18.6414 20.7992 16.0014 20.7992Z" fill="white"/>
</g>
<defs>
<clipPath id="clip0_2904_7340">
<rect width="32" height="32" fill="white"/>
</clipPath>
</defs>
</svg>
